<?xml version="1.0" encoding="iso-8859-1"?>
<!-- Uploaded to: SVG Repo, www.svgrepo.com, Generator: SVG Repo Mixer Tools -->
<svg fill="#d95c5c" height="800px" width="800px" version="1.1" id="Layer_1" xmlns="http://www.w3.org/2000/svg" xmlns:xlink="http://www.w3.org/1999/xlink" 
	 viewBox="0 0 490.667 490.667" xml:space="preserve">
<g>
	<g>
		<g>
			<path d="M74.667,42.667h64c11.776,0,21.333-9.557,21.333-21.333S150.443,0,138.667,0h-64C62.891,0,53.333,9.557,53.333,21.333
				S62.891,42.667,74.667,42.667z"/>
			<path d="M352,42.667h64c11.776,0,21.333-9.557,21.333-21.333S427.776,0,416,0h-64c-11.776,0-21.333,9.557-21.333,21.333
				S340.224,42.667,352,42.667z"/>
			<path d="M10.667,426.667C10.667,438.443,20.224,448,32,448h42.667v21.333c0,11.776,9.557,21.333,21.333,21.333
				s21.333-9.557,21.333-21.333V448h256v21.333c0,11.776,9.557,21.333,21.333,21.333S416,481.109,416,469.333V448h42.667
				c11.776,0,21.333-9.557,21.333-21.333V277.333H10.667V426.667z M224,320h42.667c11.776,0,21.333,9.557,21.333,21.333
				s-9.557,21.333-21.333,21.333H224c-11.776,0-21.333-9.557-21.333-21.333S212.224,320,224,320z"/>
			<path d="M458.667,64H32c-11.776,0-21.333,9.557-21.333,21.333v149.333H480V85.333C480,73.557,470.443,64,458.667,64z
				 M266.667,192H224c-11.776,0-21.333-9.557-21.333-21.333s9.557-21.333,21.333-21.333h42.667c11.776,0,21.333,9.557,21.333,21.333
				S278.443,192,266.667,192z"/>
		</g>
	</g>
</g>
</svg>